#!OML:ASF H:\Punching\Project 1\Capture day 1\Session 1\female.ASF
:FULLY-SPECIFIED
:DEGREES
3293
root 1.15081 15.5118 4.00522 -28.6684 16.2218 -13.462
lowerback 13.0633 -4.06823 -5.53558
upperback 5.82187 -5.91201 7.87719
thorax 0.364785 -3.28996 12.3926
lowerneck -9.2987 1.4273 13.6783
upperneck 44.4816 -2.0669 0.81448
head 18.4011 1.70019 -2.37832
rclavicle 5.46658e-015 -3.65764e-014
rhumerus -3.59702 13.3918 -62.6487
rradius 133.983
rwrist -12.4053
rhand -30.0914 9.81277
rfingers 7.12502
rthumb -3.40569 -20.1398
lclavicle 5.46658e-015 -3.65764e-014
lhumerus 8.31364 -37.3156 82.5541
lradius 133.102
lwrist -3.38256
lhand -27.5865 -1.4606
lfingers 7.12502
lthumb -0.986595 28.5169
rfemur -110.607 -17.5413 4.5915
rtibia 45.8463
rfoot 11.3129 -11.7044
rtoes -25.7575
lfemur 19.4692 -11.199 -20.7806
ltibia 22.578
lfoot -11.7826 4.90816
ltoes 14.0055
3294
root 1.16023 15.5107 4.01922 -28.6623 16.5851 -13.3729
lowerback 13.0212 -4.12863 -5.61636
upperback 5.82954 -6.00374 7.74964
thorax 0.411787 -3.33813 12.2966
lowerneck -9.33826 1.40669 13.6648
upperneck 44.4314 -2.10002 0.822901
head 18.3765 1.68238 -2.37772
rclavicle -1.2921e-014 4.53229e-014
rhumerus -3.16893 13.4257 -62.616
rradius 133.817
rwrist -12.4507
rhand -30.1512 9.76555
rfingers 7.12502
rthumb -3.46345 -20.1861
lclavicle -1.2921e-014 4.53229e-014
lhumerus 8.53102 -37.289 82.2212
lradius 133.183
lwrist -3.22786
lhand -27.6691 -0.983874
lfingers 7.12502
lthumb -1.06636 28.9932
rfemur -109.143 -18.1535 2.05473
rtibia 42.8959
rfoot 11.2494 -13.6234
rtoes -25.8199
lfemur 19.6516 -11.4872 -21.1607
ltibia 22.3101
lfoot -11.673 5.06606
ltoes 13.9312
3295
root 1.16796 15.5085 4.03472 -28.5989 16.9461 -13.3729
lowerback 12.9165 -4.20602 -5.64372
upperback 5.79573 -6.10894 7.66777
thorax 0.450713 -3.39069 12.2177
lowerneck -9.37009 1.37982 13.6187
upperneck 44.4067 -2.13733 0.839722
head 18.3651 1.66056 -2.36812
rclavicle 5.98342e-014 -3.73715e-014
rhumerus -2.77371 13.4821 -62.552
rradius 133.686
rwrist -12.5162
rhand -30.2121 9.74909
rfingers 7.12502
rthumb -3.52233 -20.2016
lclavicle 5.98342e-014 -3.73715e-014
lhumerus 8.71632 -37.2836 81.9509
lradius 133.233
lwrist -3.02961
lhand -27.7713 -0.409812
lfingers 7.12502
lthumb -1.165 29.5668
rfemur -108.135 -18.7457 0.147883
rtibia 41.0286
rfoot 11.2178 -15.3606
rtoes -25.5961
lfemur 19.6102 -11.7697 -21.3939
ltibia 22.2967
lfoot -11.6747 5.14939
ltoes 13.8654
3296
root 1.17343 15.5057 4.05187 -28.52 17.2827 -13.4703
lowerback 12.7832 -4.29132 -5.61545
upperback 5.73327 -6.21613 7.63653
thorax 0.474549 -3.44206 12.1621
lowerneck -9.38769 1.34563 13.5397
upperneck 44.4005 -2.17734 0.862511
head 18.3607 1.6344 -2.35032
rclavicle 4.9895e-014 8.74653e-015
rhumerus -2.4285 13.5541 -62.4529
rradius 133.601
rwrist -12.6009
rhand -30.2759 9.76243
rfingers 7.12502
rthumb -3.58388 -20.1872
lclavicle 4.9895e-014 8.74653e-015
lhumerus 8.87117 -37.2923 81.7469
lradius 133.25
lwrist -2.80731
lhand -27.8632 0.188669
lfingers 7.12502
lthumb -1.25376 30.1647
rfemur -107.703 -19.2769 -0.771019
rtibia 40.2815
rfoot 11.2137 -16.5899
rtoes -25.2806
lfemur 19.3872 -12.0225 -21.4586
ltibia 22.5358
lfoot -11.788 5.1435
ltoes 13.7937
3297
root 1.17638 15.5024 4.07021 -28.4544 17.5736 -13.6457
lowerback 12.6727 -4.36941 -5.5505
upperback 5.64779 -6.30837 7.65458
thorax 0.459734 -3.48314 12.1437
lowerneck -9.39466 1.30374 13.4242
upperneck 44.4101 -2.22083 0.892727
head 18.3626 1.60302 -2.32312
rclavicle -1.19867e-013 4.6118e-014
rhumerus -2.13346 13.6418 -62.3134
rradius 133.567
rwrist -12.7047
rhand -30.3332 9.77477
rfingers 7.12502
rthumb -3.63925 -20.1739
lclavicle -1.19867e-013 4.6118e-014
lhumerus 8.98238 -37.3091 81.6173
lradius 133.235
lwrist -2.59326
lhand -27.9234 0.765477
lfingers 7.12502
lthumb -1.31193 30.7412
rfemur -107.884 -19.7042 -0.551908
rtibia 40.5863
rfoot 11.2742 -17.0487
rtoes -25.0591
lfemur 19.041 -12.2192 -21.368
ltibia 22.9835
lfoot -11.994 5.04521
ltoes 13.7303
3298
root 1.17699 15.4985 4.0899 -28.4231 17.797 -13.875
lowerback 12.5986 -4.43021 -5.46241
upperback 5.56875 -6.3749 7.71393
thorax 0.428556 -3.51109 12.1606
lowerneck -9.41993 1.26048 13.2829
upperneck 44.4231 -2.2618 0.920377
head 18.371 1.56851 -2.29238
rclavicle -4.96962e-015 1.17681e-013
rhumerus -1.86085 13.7339 -62.1361
rradius 133.58
rwrist -12.8211
rhand -30.383 9.77064
rfingers 7.12502
rthumb -3.68736 -20.1772
lclavicle -4.96962e-015 1.17681e-013
lhumerus 9.09429 -37.3105 81.5232
lradius 133.195
lwrist -2.42382
lhand -27.9311 1.2884
lfingers 7.12502
lthumb -1.31936 31.2641
rfemur -108.565 -19.9918 0.649536
rtibia 41.8029
rfoot 11.4122 -16.7248
rtoes -25.0186
lfemur 18.6392 -12.3367 -21.1454
ltibia 23.5762
lfoot -12.2692 4.86437
ltoes 13.69
3299
root 1.17601 15.494 4.11013 -28.4271 17.9401 -14.1232
lowerback 12.5772 -4.46255 -5.35988
upperback 5.49504 -6.40179 7.80123
thorax 0.366892 -3.51782 12.2036
lowerneck -9.45598 1.21499 13.1273
upperneck 44.4424 -2.30056 0.939014
head 18.3856 1.53204 -2.26318
rclavicle -8.56762e-014 7.79236e-014
rhumerus -1.6239 13.821 -61.931
rradius 133.634
rwrist -12.9442
rhand -30.415 9.75791
rfingers 7.12502
rthumb -3.71823 -20.1894
lclavicle -8.56762e-014 7.79236e-014
lhumerus 9.18558 -37.2969 81.4728
lradius 133.132
lwrist -2.33604
lhand -27.8781 1.68497
lfingers 7.12502
lthumb -1.26819 31.6609
rfemur -109.586 -20.1218 2.5263
rtibia 43.7734
rfoot 11.5887 -15.7678
rtoes -25.23
lfemur 18.2318 -12.3609 -20.835
ltibia 24.248
lfoot -12.5843 4.62455
ltoes 13.6821
3300
root 1.17442 15.488 4.13102 -28.4496 17.9964 -14.3536
lowerback 12.5854 -4.46189 -5.25229
upperback 5.43563 -6.38408 7.9
thorax 0.294429 -3.50194 12.256
lowerneck -9.49928 1.16905 12.9659
upperneck 44.4555 -2.33534 0.949388
head 18.3981 1.49477 -2.23626
rclavicle 7.11649e-014 -5.48646e-014
rhumerus -1.40943 13.8939 -61.7099
rradius 133.712
rwrist -13.0634
rhand -30.4293 9.7348
rfingers 7.12502
rthumb -3.732 -20.2123
lclavicle 7.11649e-014 -5.48646e-014
lhumerus 9.26483 -37.2681 81.4445
lradius 133.058
lwrist -2.35189
lhand -27.767 1.92516
lfingers 7.12502
lthumb -1.1609 31.9018
rfemur -110.778 -20.0988 4.72249
rtibia 46.3496
rfoot 11.7716 -14.405
rtoes -25.5874
lfemur 17.8482 -12.2812 -20.4843
ltibia 24.9467
lfoot -12.9202 4.36374
ltoes 13.7553
3301
root 1.1734 15.4802 4.15213 -28.4728 17.9743 -14.5324
lowerback 12.6136 -4.4287 -5.14724
upperback 5.39188 -6.32336 7.99275
thorax 0.216715 -3.46429 12.301
lowerneck -9.55229 1.1255 12.8137
upperneck 44.4608 -2.36428 0.946424
head 18.4084 1.45919 -2.21641
rclavicle -1.07841e-013 1.01778e-013
rhumerus -1.2049 13.9447 -61.4835
rradius 133.804
rwrist -13.1737
rhand -30.4259 9.70304
rfingers 7.12502
rthumb -3.72873 -20.2441
lclavicle -1.07841e-013 1.01778e-013
lhumerus 9.33196 -37.2251 81.423
lradius 132.98
lwrist -2.47202
lhand -27.6189 2.01268
lfingers 7.12502
lthumb -1.01781 31.99
rfemur -112.018 -19.9493 6.98195
rtibia 49.4115
rfoot 11.9161 -12.8775
rtoes -25.9531
lfemur 17.5061 -12.1057 -20.1504
ltibia 25.6345
lfoot -13.2602 4.12787
ltoes 13.902
3302
root 1.1737 15.4704 4.17285 -28.4792 17.8831 -14.6375
lowerback 12.6567 -4.36509 -5.05027
upperback 5.35487 -6.22295 8.06682
thorax 0.126604 -3.40558 12.3273
lowerneck -9.60478 1.08433 12.6791
upperneck 44.4605 -2.38874 0.931585
head 18.4153 1.42637 -2.20453
rclavicle -2.95195e-014 5.40694e-014
rhumerus -1.02084 13.9748 -61.2675
rradius 133.895
rwrist -13.2615
rhand -30.4117 9.67501
rfingers 7.12502
rthumb -3.71504 -20.2724
lclavicle -2.95195e-014 5.40694e-014
lhumerus 9.36497 -37.1793 81.408
lradius 132.903
lwrist -2.69915
lhand -27.469 1.94697
lfingers 7.12502
lthumb -0.873079 31.9249
rfemur -113.215 -19.7033 9.12972
rtibia 52.8534
rfoot 11.963 -11.3195
rtoes -26.2737
lfemur 17.2103 -11.8527 -19.8767
ltibia 26.2906
lfoot -13.5982 3.95761
ltoes 14.1232
3303
root 1.17561 15.4585 4.19228 -28.4493 17.7325 -14.6565
lowerback 12.7012 -4.27589 -4.9674
upperback 5.32472 -6.09023 8.11373
thorax 0.0331148 -3.33004 12.3274
lowerneck -9.65683 1.04938 12.5688
upperneck 44.4487 -2.40661 0.909649
head 18.4156 1.39837 -2.19913
rclavicle 2.80286e-014 -2.8625e-014
rhumerus -0.840105 13.9859 -61.0768
rradius 133.972
rwrist -13.3203
rhand -30.3945 9.66284
rfingers 7.12502
rthumb -3.69845 -20.2848
lclavicle 2.80286e-014 -2.8625e-014
lhumerus 9.37495 -37.1081 81.3829
lradius 132.785
lwrist -3.00782
lhand -27.3454 1.54529
lfingers 7.12502
lthumb -0.753701 31.5237
rfemur -114.329 -19.3863 11.0782
rtibia 56.5853
rfoot 11.9346 -9.8194
rtoes -26.4702
lfemur 16.9503 -11.5509 -19.6932
ltibia 26.9029
lfoot -13.9309 3.87961
ltoes 14.414
3304
root 1.17888 15.4443 4.20963 -28.3706 17.5295 -14.5859
lowerback 12.7465 -4.16526 -4.90697
upperback 5.29312 -5.93176 8.131
thorax -0.0698816 -3.24058 12.3042
lowerneck -9.7016 1.0222 12.4882
upperneck 44.4262 -2.41572 0.879657
head 18.4084 1.37679 -2.20124
rclavicle 1.22253e-014 -9.06458e-014
rhumerus -0.670551 13.9886 -60.9216
rradius 134.03
rwrist -13.3535
rhand -30.3802 9.64295
rfingers 7.12502
rthumb -3.68463 -20.3049
lclavicle 1.22253e-014 -9.06458e-014
lhumerus 9.35203 -37.0214 81.346
lradius 132.646
lwrist -3.35272
lhand -27.2664 0.916196
lfingers 7.12502
lthumb -0.677349 30.8949
rfemur -115.324 -19.0171 12.7869
rtibia 60.5197
rfoot 11.9084 -8.3533
rtoes -26.9114
lfemur 16.7125 -11.2301 -19.6145
ltibia 27.47
lfoot -14.2581 3.90288
ltoes 14.7194
